<?xml version="1.0" standalone="no"?><!DOCTYPE svg PUBLIC "-//W3C//DTD SVG 1.1//EN" "http://www.w3.org/Graphics/SVG/1.1/DTD/svg11.dtd"><svg t="1711703938680" class="icon" viewBox="0 0 1024 1024" version="1.1" xmlns="http://www.w3.org/2000/svg" p-id="27518" xmlns:xlink="http://www.w3.org/1999/xlink" width="200" height="200"><path d="M388.4 769.2h248.4c2.4 0 4.8 1.2 6.2 3l115.2 144c4.2 5.2 0.4 13-6.2 13H273.2c-6.8 0-10.4-7.8-6.2-13l115.2-144c1.6-2 3.8-3 6.2-3z" fill="#ffffff" p-id="27519"></path><path d="M714.6 333.2m-62 0a62 62 0 1 0 124 0 62 62 0 1 0-124 0Z" fill="#ffffff" p-id="27520"></path><path d="M952.6 95.2h-880c-4.4 0-8 3.6-8 8v590c0 4.4 3.6 8 8 8h880c4.4 0 8-3.6 8-8v-590c0-4.4-3.6-8-8-8z m-752 120h240c4.4 0 8 3.6 8 8v50c0 4.4-3.6 8-8 8h-240c-4.4 0-8-3.6-8-8v-50c0-4.4 3.6-8 8-8z m0 148h240c4.4 0 8 3.6 8 8v50c0 4.4-3.6 8-8 8h-240c-4.4 0-8-3.6-8-8v-50c0-4.4 3.6-8 8-8z m624 214h-624c-4.4 0-8-3.6-8-8v-50c0-4.4 3.6-8 8-8h624c4.4 0 8 3.6 8 8v50c0 4.4-3.6 8-8 8z m-110-126c-65.2 0-118-52.8-118-118s52.8-118 118-118 118 52.8 118 118-52.8 118-118 118z" fill="#ffffff" p-id="27521"></path></svg>