<?xml version="1.0" standalone="no"?><!DOCTYPE svg PUBLIC "-//W3C//DTD SVG 1.1//EN" "http://www.w3.org/Graphics/SVG/1.1/DTD/svg11.dtd"><svg t="1713273905998" class="icon" viewBox="0 0 1024 1024" version="1.1" xmlns="http://www.w3.org/2000/svg" p-id="21735" xmlns:xlink="http://www.w3.org/1999/xlink" width="18" height="18"><path d="M146.304 512h146.304V438.848H146.304V512z m0 146.304h292.544V585.152H146.304v73.152z m0 146.24h585.088V731.52H146.304v73.088zM512 219.52v219.392C512 479.232 544.768 512 585.152 512h219.456V292.544c0-40.32-32.768-73.088-73.216-73.088H512z m-73.152 0H146.304c-40.448 0-73.152 32.704-73.152 73.088v585.152c0 40.448 32.704 73.216 73.152 73.216h585.088c40.448 0 73.216-32.768 73.216-73.216V585.152H585.152a146.304 146.304 0 0 1-146.304-146.304V219.456zM512 146.304h219.392a146.304 146.304 0 0 1 146.304 146.24V512c40.448 0 73.152-32.768 73.152-73.152V146.304c0-40.384-32.704-73.152-73.152-73.152H585.152C544.768 73.152 512 105.92 512 146.304z m-73.152 0A146.304 146.304 0 0 1 585.152 0h292.544A146.304 146.304 0 0 1 1024 146.304v292.544a146.304 146.304 0 0 1-146.304 146.304v292.544A146.304 146.304 0 0 1 731.392 1024H146.304A146.304 146.304 0 0 1 0 877.696V292.544a146.24 146.24 0 0 1 146.304-146.24h292.544z" fill="#000000" p-id="21736"></path></svg>